<svg xmlns="http://www.w3.org/2000/svg" width="35" height="50.985" viewBox="0 0 35 50.985"><g transform="translate(1.5 1.5)"><line y2="24" fill="none" stroke="#707070" stroke-linecap="round" stroke-width="3"/><line y2="24" transform="translate(16)" fill="none" stroke="#707070" stroke-linecap="round" stroke-width="3"/><line y2="24" transform="translate(32)" fill="none" stroke="#707070" stroke-linecap="round" stroke-width="3"/><path d="M19.228,24.7a.85.85,0,0,1-.318-.058.882.882,0,0,1-.289-.2l-5.729-5.729a.8.8,0,0,1-.217-.622.89.89,0,0,1,.246-.622.726.726,0,0,1,.622-.246,1.088,1.088,0,0,1,.593.275l5.092,5.092L24.32,17.5a.945.945,0,0,1,.622-.26.685.685,0,0,1,.622.26.638.638,0,0,1,.246.608,1.127,1.127,0,0,1-.275.637l-5.7,5.7a.882.882,0,0,1-.289.2.85.85,0,0,1-.318.058Z" transform="translate(-3.245 24.785)" fill="#707070"/></g></svg>